# xmcd
#
# Track frame offsets:
#	150
#	15120
#	30750
#	44132
#	58210
#	74970
#	91720
#	109657
#	123247
#	139420
#	153507
#	169690
#
# Disc length: 2462 seconds
#
# Revision: 1
# Processed by: cddbd v1.5.1PL0 Copyright (c) Steve Scherf et al.
# Submitted via: CDex 1.50Beta5
#
DISCID=9e099c0c
DTITLE=あいざき進也 - BEST OF SHINYA
DYEAR=1994
DGENRE=Pop
TTITLE0=気になる17才
TTITLE1=シンデレラは6月生まれ
TTITLE2=君におくる愛のメロディー
TTITLE3=愛の誕生日
TTITLE4=想い出のバイオリン
TTITLE5=恋のリクエスト
TTITLE6=恋のペンダント
TTITLE7=君のハートに火をつけて
TTITLE8=北へ北へ
TTITLE9=愛の舟
TTITLE10=真夏の感触
TTITLE11=友達からもう一度
EXTD=
EXTT0=
EXTT1=
EXTT2=
EXTT3=
EXTT4=
EXTT5=
EXTT6=
EXTT7=
EXTT8=
EXTT9=
EXTT10=
EXTT11=
PLAYORDER=
